<svg width="30" height="23" viewBox="0 0 30 23" fill="none" xmlns="http://www.w3.org/2000/svg">
	<path d="M29.3128 1.38665C29.1143 1.18492 28.8783 1.0248 28.6181 0.915527C28.358 0.806257 28.079 0.75 27.7972 0.75C27.5154 0.75 27.2364 0.806257 26.9763 0.915527C26.7161 1.0248 26.48 1.18492 26.2816 1.38665L10.3785 17.4429L3.69704 10.6846C3.491 10.4839 3.24778 10.3261 2.98126 10.2202C2.71473 10.1143 2.43013 10.0624 2.14371 10.0674C1.85728 10.0724 1.57463 10.1342 1.3119 10.2494C1.04917 10.3645 0.811509 10.5307 0.612477 10.7384C0.413446 10.9462 0.256947 11.1914 0.151914 11.4601C0.0468809 11.7289 -0.00462908 12.0158 0.000326427 12.3046C0.00528193 12.5934 0.0666056 12.8784 0.180795 13.1433C0.294985 13.4082 0.459804 13.6478 0.665844 13.8485L8.86288 22.1134C9.06133 22.3151 9.29742 22.4752 9.55755 22.5845C9.81767 22.6937 10.0967 22.75 10.3785 22.75C10.6603 22.75 10.9393 22.6937 11.1994 22.5845C11.4595 22.4752 11.6956 22.3151 11.8941 22.1134L29.3128 4.55054C29.5295 4.34899 29.7024 4.10438 29.8207 3.83211C29.9389 3.55985 30 3.26583 30 2.96859C30 2.67136 29.9389 2.37734 29.8207 2.10507C29.7024 1.83281 29.5295 1.5882 29.3128 1.38665Z" fill="#533738"/>
</svg>
