<svg width="12" height="7" viewBox="0 0 12 7" fill="none" xmlns="http://www.w3.org/2000/svg">
	<path d="M5.97482 2.70717L1.94286 6.67413C1.72946 6.88285 1.44078 7 1.13988 7C0.838981 7 0.550307 6.88285 0.336906 6.67413C0.230152 6.56996 0.145419 6.44602 0.0875946 6.30946C0.0297705 6.1729 0 6.02643 0 5.8785C0 5.73057 0.0297705 5.5841 0.0875946 5.44754C0.145419 5.31098 0.230152 5.18704 0.336906 5.08287L5.16615 0.331475C5.27203 0.226442 5.398 0.143075 5.5368 0.086183C5.67559 0.0292911 5.82446 0 5.97482 0C6.12517 0 6.27404 0.0292911 6.41284 0.086183C6.55163 0.143075 6.67761 0.226442 6.78349 0.331475L11.6697 5.08287C11.7752 5.18758 11.8588 5.31176 11.9154 5.44829C11.9721 5.58482 12.0008 5.73102 12 5.8785C12.0008 6.02598 11.9721 6.17218 11.9154 6.30871C11.8588 6.44524 11.7752 6.56942 11.6697 6.67413C11.4563 6.88285 11.1676 7 10.8667 7C10.5658 7 10.2771 6.88285 10.0637 6.67413L5.97482 2.70717Z" fill="#f5f2ed"/>
</svg>
